# xmcd
#
# Track frame offsets:
#	150
#	22456
#	37854
#	50755
#	63617
#	83522
#	92480
#	108053
#	124355
#	134656
#	148056
#	158178
#	173150
#	184851
#	199837
#	213206
#	226614
#	238742
#
# Disc length: 3392 seconds
#
# Revision: 1
# Processed by: cddbd v1.5.2PL0 Copyright (c) Steve Scherf et al.
# Submitted via: audiograbber 1.83.01
#
DISCID=fd0d3e12
DTITLE=Western Heart - Western Heart 003
DYEAR=2000
DGENRE=Country
TTITLE0=A Night Like This - Richard Burr
TTITLE1=Rendezvous  - Kevin Shaw
TTITLE2=You´re A Lesson I´ve Already Learned - Erin Hay
TTITLE3=This Old Boy Ain´t Gonna Walk The Line - Ernie Ashworth
TTITLE4=If I Was An Angel - Beth Singer
TTITLE5=Who´s Who  - Georgie Webb
TTITLE6=Spanish Eyes - Antonio Rosales
TTITLE7=Round The Clock Loving - Lorraine Walden
TTITLE8=Till Closing Time  - Jerry Hill
TTITLE9=Two April Fools  - Tom Cunningham
TTITLE10=Laid Over Dallas  - Doc Randolph
TTITLE11=She´ll Get By  - Joyce Meré
TTITLE12=They Call The Wind Mariah - Woody Wills
TTITLE13=If This Old House Could Talk  - Jim Marshall
TTITLE14=After Her Before You - Christi Owens
TTITLE15=I Have Seen Forever In Your Eyes  - Charlie Louvin
TTITLE16=Don´t Like It Like That  - Jack Roux
TTITLE17=The Last One To Know  - D. K. Davis
EXTD=
EXTT0=
EXTT1=
EXTT2=
EXTT3=
EXTT4=
EXTT5=
EXTT6=
EXTT7=
EXTT8=
EXTT9=
EXTT10=
EXTT11=
EXTT12=
EXTT13=
EXTT14=
EXTT15=
EXTT16=
EXTT17=
PLAYORDER=
